<svg width="90" height="26" fill="none" xmlns="http://www.w3.org/2000/svg">
  <g clip-path="url(#a)">
    <path
      d="M.023 22.749c4.303 4.302 11.278 4.302 15.58 0 4.303-4.303 4.303-11.278 0-15.58l-1.947 1.947A8.263 8.263 0 1 1 1.97 20.801L.023 22.75Z"
      fill="#00C98D"/>
    <path d="M3.918 18.854a5.509 5.509 0 0 0 7.79-7.79L9.761 13.01a2.754 2.754 0 1 1-3.895 3.895l-1.948 1.948Z"
          fill="#00C98D"/>
    <path
      d="M19.498 3.273c-4.302-4.302-11.277-4.302-15.58 0-4.302 4.302-4.302 11.278 0 15.58l1.948-1.947A8.263 8.263 0 0 1 17.55 5.22l1.947-1.948Z"
      fill="#00C98D"/>
    <path d="M15.603 7.168a5.508 5.508 0 0 0-7.79 7.79l1.948-1.947a2.754 2.754 0 0 1 3.895-3.895l1.947-1.948Z"
          fill="#00C98D"/>
    <path
      d="M19.498 3.273c-4.302-4.302-11.277-4.302-15.58 0-4.302 4.302-4.302 11.278 0 15.58l1.948-1.947A8.263 8.263 0 0 1 17.55 5.22l1.947-1.948Z"
      fill="#fff" fill-opacity=".4"/>
    <path d="M15.603 7.168a5.508 5.508 0 0 0-7.79 7.79l1.948-1.947a2.754 2.754 0 0 1 3.895-3.895l1.947-1.948Z"
          fill="#fff" fill-opacity=".4"/>
  </g>
  <path
    d="M32.396 14.523V9.3h2.124v9.014h-2.06V16.71h-.094a2.711 2.711 0 0 1-1.003 1.239c-.462.32-1.031.48-1.708.48-.59 0-1.113-.13-1.567-.392a2.733 2.733 0 0 1-1.056-1.156c-.254-.509-.381-1.123-.381-1.843v-5.74h2.124v5.411c0 .571.156 1.025.47 1.362.312.336.723.504 1.232.504.313 0 .616-.076.91-.228a1.85 1.85 0 0 0 .721-.681c.192-.305.288-.687.288-1.144Zm3.978 7.17V9.3h2.09v1.49h.122c.11-.219.264-.452.464-.698.2-.25.47-.464.81-.64.34-.18.775-.27 1.303-.27.696 0 1.324.178 1.883.534.564.352 1.01.875 1.338 1.567.333.689.5 1.534.5 2.535 0 .99-.163 1.831-.488 2.524-.325.692-.767 1.22-1.326 1.584a3.41 3.41 0 0 1-1.901.546c-.517 0-.945-.086-1.286-.258a2.615 2.615 0 0 1-.821-.622 4.028 4.028 0 0 1-.476-.699h-.088v4.8h-2.124Zm2.083-7.886c0 .582.082 1.093.247 1.531.168.438.409.78.722 1.027.316.243.7.364 1.15.364.47 0 .862-.125 1.18-.376.316-.254.555-.6.715-1.038.165-.442.247-.945.247-1.508 0-.56-.08-1.057-.24-1.491-.161-.434-.4-.775-.717-1.021-.317-.246-.712-.37-1.185-.37-.454 0-.84.12-1.156.358-.317.239-.558.573-.722 1.004-.16.43-.24.937-.24 1.52Zm15.039-2.125-1.937.211a1.555 1.555 0 0 0-.287-.551 1.426 1.426 0 0 0-.54-.417c-.227-.105-.505-.158-.833-.158-.442 0-.814.096-1.115.287-.298.192-.444.44-.44.746a.78.78 0 0 0 .287.64c.2.164.528.299.986.404l1.538.329c.852.184 1.486.475 1.9.874.42.4.63.921.635 1.567a2.451 2.451 0 0 1-.5 1.502c-.324.43-.776.767-1.355 1.01-.579.242-1.244.363-1.995.363-1.103 0-1.991-.23-2.664-.692-.673-.466-1.074-1.113-1.203-1.942l2.071-.2c.094.407.294.714.599.921.305.208.702.311 1.191.311.505 0 .91-.103 1.215-.31.309-.208.464-.464.464-.77a.8.8 0 0 0-.3-.639c-.195-.168-.5-.297-.915-.387l-1.538-.323c-.864-.18-1.504-.483-1.919-.91-.414-.43-.62-.974-.616-1.631-.004-.556.147-1.037.452-1.444.31-.41.737-.727 1.285-.95.552-.227 1.188-.34 1.907-.34 1.057 0 1.888.224 2.494.674.61.45.988 1.058 1.133 1.825ZM59.612 9.3v1.643H54.43V9.3h5.182Zm-3.903-2.16h2.125v8.462c0 .286.043.505.129.658.09.148.207.25.352.305.145.054.305.082.481.082.133 0 .255-.01.364-.03.114-.019.2-.037.258-.052l.358 1.66a4.76 4.76 0 0 1-.487.13 3.991 3.991 0 0 1-.763.082 3.463 3.463 0 0 1-1.438-.24 2.237 2.237 0 0 1-1.015-.834c-.246-.376-.367-.845-.364-1.409V7.14Zm7.943 11.355a3.76 3.76 0 0 1-1.544-.305 2.519 2.519 0 0 1-1.08-.915c-.261-.403-.392-.9-.392-1.49 0-.51.093-.93.281-1.262a2.18 2.18 0 0 1 .769-.799c.325-.2.69-.35 1.097-.451.411-.106.836-.182 1.274-.23.528-.054.956-.103 1.285-.146.329-.047.567-.117.716-.211.152-.098.229-.249.229-.452v-.035c0-.442-.131-.785-.393-1.027-.263-.243-.64-.364-1.133-.364-.52 0-.933.113-1.238.34-.302.227-.505.495-.61.804l-1.984-.281a3.166 3.166 0 0 1 .775-1.374c.36-.371.8-.65 1.32-.833a5.05 5.05 0 0 1 1.725-.282c.434 0 .867.051 1.297.153.43.102.824.27 1.18.505.356.23.641.545.856.944.22.4.33.898.33 1.497v6.033h-2.043v-1.239h-.07c-.13.25-.312.485-.546.704-.231.216-.522.39-.875.523-.348.129-.757.193-1.226.193Zm.552-1.56c.426 0 .796-.085 1.109-.253.313-.172.553-.399.721-.68.173-.282.259-.59.259-.922v-1.062a.997.997 0 0 1-.34.152 4.827 4.827 0 0 1-.529.124c-.196.035-.39.066-.58.093l-.5.071c-.317.043-.6.113-.85.211-.251.098-.449.235-.593.411-.145.172-.217.395-.217.669 0 .391.142.687.428.886.286.2.65.3 1.092.3Zm13.137-5.253-1.937.211a1.557 1.557 0 0 0-.287-.551 1.428 1.428 0 0 0-.54-.417c-.227-.105-.505-.158-.833-.158-.442 0-.814.096-1.115.287-.298.192-.445.44-.44.746a.78.78 0 0 0 .287.64c.2.164.528.299.986.404l1.537.329c.853.184 1.487.475 1.902.874.418.4.63.921.633 1.567a2.451 2.451 0 0 1-.498 1.502c-.325.43-.777.767-1.356 1.01-.579.242-1.244.363-1.995.363-1.103 0-1.991-.23-2.664-.692-.673-.466-1.074-1.113-1.203-1.942l2.071-.2c.094.407.294.714.599.921.305.208.702.311 1.191.311.505 0 .91-.103 1.215-.31.309-.208.463-.464.463-.77a.8.8 0 0 0-.299-.639c-.196-.168-.5-.297-.915-.387l-1.538-.323c-.865-.18-1.504-.483-1.919-.91-.415-.43-.62-.974-.616-1.631-.004-.556.147-1.037.452-1.444.309-.41.737-.727 1.285-.95.552-.227 1.187-.34 1.907-.34 1.056 0 1.888.224 2.494.674.61.45.988 1.058 1.133 1.825Zm3.74 1.35v5.282h-2.125V6.295h2.077v4.536h.106c.211-.508.538-.91.98-1.203.446-.297 1.013-.446 1.702-.446.626 0 1.171.131 1.637.393.465.263.825.646 1.08 1.15.258.505.387 1.122.387 1.85v5.739H84.8v-5.411c0-.607-.157-1.078-.47-1.414-.309-.34-.743-.511-1.303-.511-.375 0-.712.082-1.009.247-.293.16-.524.393-.693.698-.164.305-.246.675-.246 1.109Z"
    fill="#050505"/>
  <defs>
    <clipPath id="a">
      <path fill="#fff" d="M0 0h19.5v26H0z"/>
    </clipPath>
  </defs>
</svg>
